<svg fill="none" height="18" viewBox="0 0 21 19" width="20" xmlns="http://www.w3.org/2000/svg"><path d="m19.478889 9.814667c2.176296-2.2424649 2.176296-5.883713 0-8.1039932-2.176299-2.24247003-5.710038-2.24247003-7.886338 0l-1.05581 1.1101402-1.0558495-1.0879343c-2.1762882-2.26467593-5.7100783-2.26467593-7.8648272-.0222059-1.05582916 1.0879344-1.6160643 2.5311186-1.6160643 4.0631048s.58178254 2.9751598 1.6160643 4.0630941l8.9206767 9.1919483zm-18.099848-4.0408884c0-1.1545411.4309477-2.2202697 1.2282053-3.0195714.8188067-.8437025 1.8746266-1.2655592 2.9304569-1.2655592 1.0558302 0 2.1116604.4218567 2.9304571 1.2655592l2.0685807 2.1092618 2.068503-2.1314674c1.616052-1.6652019 4.266457-1.6652019 5.860954 0 .775738.7993016 1.228184 1.8650302 1.228184 3.0195713 0 1.154541-.430887 2.2202695-1.228184 3.0195713l-7.929457 8.1928258-7.9294947-8.1706201c-.7757081-.8215075-1.2282053-1.887236-1.2282053-3.0195713z" fill="#000" stroke-width="1.03233"/></svg>